# xmcd CD database file
#
# Track frame offsets:
#	150
#	18937
#	40650
#	59475
#
# Disc length: 1078 seconds
#
# Revision: 0
# Processed by: cddbd v1.5.1PL2 Copyright (c) Steve Scherf et al.
# Submitted via: CDex 1.51
#
DISCID=29043404
DTITLE=moonriders - ニットキャップマン
DYEAR=1996
DGENRE=JPop
TTITLE0=ニットキャップマン
TTITLE1=BEATITUDE
TTITLE2=ニットキャップマン(Instrumental)
TTITLE3=BEATITUDE(Instrumental)
EXTD=YEAR: 1996
EXTT0=
EXTT1=
EXTT2=
EXTT3=
PLAYORDER=
